{"glyphs":{"0":{"ha":483,"x_min":33,"x_max":446,"o":"m 446 843 q 436 656 439 740 q 433 499 433 572 q 432 360 432 425 q 431 229 432 294 l 431 133 q 429 121 431 125 q 401 42 429 64 q 321 14 372 21 q 217 4 250 7 q 167 0 183 1 q 126 3 147 -3 q 88 20 106 8 q 60 51 71 32 q 49 96 49 71 l 42 563 q 35 711 38 638 q 36 857 33 785 q 44 922 38 894 q 66 966 51 949 q 106 992 81 983 q 174 1001 132 1001 q 279 1003 224 1003 q 378 986 335 1003 q 413 963 400 976 q 433 931 426 949 q 442 890 440 913 q 446 843 444 868 m 321 140 q 325 298 325 218 q 324 466 325 378 q 320 653 322 554 q 317 867 318 751 q 316 875 317 874 q 308 876 315 876 l 171 876 q 165 869 165 876 q 164 856 164 861 q 164 723 164 774 q 163 640 164 672 q 163 588 163 608 q 163 547 163 567 q 165 499 164 526 q 167 427 165 472 q 171 311 168 382 q 178 132 174 240 l 178 129 l 179 129 l 318 138 l 318 139 l 319 139 q 321 140 321 139 z "},"1":{"ha":410,"x_min":33,"x_max":383,"o":"m 265 143 q 323 144 296 143 q 379 146 350 146 l 383 22 q 208 14 294 17 q 33 8 121 11 l 33 140 l 143 140 q 147 470 143 307 q 158 800 151 633 q 104 771 131 783 l 51 894 q 146 938 100 914 q 244 988 192 961 l 304 985 q 288 794 296 897 q 275 581 281 690 q 267 359 269 471 q 265 143 265 247 z "},"2":{"ha":581,"x_min":31,"x_max":551,"o":"m 119 918 q 191 985 149 958 q 280 1024 233 1013 q 373 1029 326 1035 q 458 1001 419 1024 q 521 935 496 978 q 549 829 546 892 q 518 699 551 763 q 435 582 485 635 q 358 483 394 535 q 294 374 322 431 q 251 257 267 318 q 235 132 235 196 q 382 133 308 135 q 529 125 456 132 l 524 1 q 315 5 418 8 q 107 -8 211 1 l 97 83 q 114 234 96 158 q 161 385 132 310 q 194 458 176 425 q 234 519 213 490 q 281 578 256 549 q 335 640 306 607 q 392 718 364 676 q 421 808 419 760 q 398 879 421 856 q 343 903 375 903 q 277 885 311 904 q 219 828 243 865 q 174 683 183 763 q 168 529 164 604 l 36 519 q 33 610 31 558 q 45 717 35 663 q 74 825 56 772 q 119 918 92 878 z "},"3":{"ha":532,"x_min":40,"x_max":499,"o":"m 182 603 q 241 633 214 614 q 289 675 268 651 q 343 763 333 726 q 339 825 353 800 q 292 863 325 850 q 219 881 260 876 q 133 880 178 885 q 53 864 89 875 l 49 996 q 119 1006 81 1003 q 197 1008 157 1010 q 276 1001 236 1007 q 351 982 315 994 q 473 870 449 947 q 446 699 497 793 q 393 623 422 657 q 339 567 364 589 q 444 466 406 528 q 492 331 483 404 q 484 216 499 275 q 437 109 469 157 q 353 31 404 61 q 236 4 303 1 q 208 6 221 4 q 179 11 194 8 q 121 38 147 19 q 76 84 94 57 q 49 144 57 111 q 44 210 40 176 l 161 213 q 162 201 161 206 q 164 189 163 196 q 205 136 172 150 q 269 131 238 122 q 337 178 313 142 q 365 258 361 214 q 353 347 369 301 q 303 422 338 392 q 252 455 279 442 q 194 475 225 468 l 182 603 z "},"4":{"ha":456,"x_min":50,"x_max":424,"o":"m 290 890 l 424 883 l 382 24 l 260 29 l 271 318 l 50 308 q 51 492 50 408 q 55 649 53 575 q 60 792 57 724 q 65 928 63 860 l 197 924 q 160 443 189 681 l 275 443 l 290 890 z "},"5":{"ha":476,"x_min":38,"x_max":447,"o":"m 189 460 q 308 439 257 461 q 392 380 360 417 q 435 296 424 343 q 435 201 447 249 q 387 111 424 154 q 288 40 350 68 q 176 15 235 17 q 57 35 118 14 l 100 151 q 175 136 132 136 q 258 165 224 136 q 302 228 293 193 q 289 294 311 264 q 201 328 267 325 q 127 330 171 331 q 53 324 83 329 q 50 492 51 411 q 47 653 49 574 q 42 813 44 732 q 38 985 40 894 q 124 982 76 982 q 222 984 172 982 q 318 989 271 986 q 404 996 365 992 l 417 872 q 296 861 356 865 q 175 856 236 857 q 176 658 176 757 q 174 460 176 560 l 189 460 z "},"6":{"ha":526,"x_min":21,"x_max":494,"o":"m 210 535 q 305 517 256 531 q 396 477 354 503 q 465 411 438 451 q 492 315 492 371 q 449 168 494 238 q 408 113 431 139 q 356 67 385 88 q 296 35 328 47 q 229 24 264 24 q 140 42 179 19 q 73 103 100 65 q 33 190 46 142 q 28 285 21 238 q 35 349 29 314 q 48 420 40 385 q 63 487 56 456 q 76 538 71 518 q 134 741 101 642 q 199 939 167 840 l 338 926 q 270 731 306 835 q 210 535 235 626 m 364 300 q 335 368 368 342 q 269 399 310 389 q 179 411 228 408 l 179 410 q 167 333 172 364 q 160 281 163 301 q 158 247 158 260 q 160 222 158 233 q 181 172 165 189 q 218 153 197 156 q 263 163 239 151 q 308 196 286 174 q 346 245 331 218 q 364 300 361 272 z "},"7":{"ha":508,"x_min":25,"x_max":471,"o":"m 469 903 q 393 642 428 772 q 331 375 358 511 q 383 378 357 376 q 435 381 410 381 l 438 258 q 374 254 406 257 q 306 249 342 251 l 275 35 l 147 35 q 162 136 154 82 q 179 236 169 190 q 149 232 164 233 q 119 228 135 231 l 103 363 l 200 369 q 317 854 244 617 q 170 848 243 849 q 25 850 97 847 l 33 983 q 139 980 83 981 q 251 979 194 979 q 365 981 308 979 q 471 988 421 983 l 469 903 z "},"8":{"ha":499,"x_min":39,"x_max":461,"o":"m 432 881 q 460 770 461 833 q 442 641 460 707 q 397 513 425 575 q 343 406 368 451 q 383 361 367 382 q 411 322 399 340 q 440 244 435 286 q 432 164 444 203 q 362 71 413 104 q 251 31 311 38 q 151 42 193 24 q 83 93 108 60 q 49 171 58 126 q 45 261 39 215 q 74 351 51 307 q 132 428 96 394 q 69 577 86 497 q 69 742 51 657 q 108 846 76 794 q 189 929 140 897 q 253 958 219 950 q 320 959 288 965 q 382 933 353 953 q 432 881 411 913 m 333 732 q 318 813 333 789 q 282 835 303 838 q 240 807 261 833 q 204 738 218 781 q 192 607 183 674 q 249 488 200 540 q 303 603 279 540 q 333 732 326 667 m 228 335 q 194 287 208 319 q 176 222 179 254 q 185 168 172 190 q 233 151 197 146 q 285 173 261 154 q 311 219 310 192 q 288 285 313 251 q 228 335 264 319 z "},"9":{"ha":501,"x_min":13,"x_max":469,"o":"m 469 968 q 466 713 468 846 q 460 450 464 581 q 453 197 457 319 q 444 -28 449 74 l 310 -21 q 314 84 311 21 q 319 215 317 147 q 324 344 322 282 q 328 447 326 407 q 233 460 283 447 q 138 503 182 474 q 56 590 85 536 q 19 701 26 643 q 29 812 13 758 q 85 900 46 865 q 168 949 121 932 q 269 969 215 967 q 368 972 318 972 q 469 968 418 971 m 214 815 q 171 776 190 803 q 146 717 151 749 q 153 652 140 685 q 208 597 167 619 q 269 575 236 582 q 333 571 301 568 q 338 705 336 638 q 340 840 339 772 q 276 835 308 840 q 214 815 243 831 z "},"\u0000":{"ha":0,"x_min":0,"x_max":0,"o":""},"\r":{"ha":403,"x_min":0,"x_max":0,"o":""}," ":{"ha":403,"x_min":0,"x_max":0,"o":""},"¤":{"ha":682,"x_min":36,"x_max":646,"o":"m 349 876 q 389 873 368 875 q 429 864 410 871 l 494 1008 l 628 1004 q 581 903 603 951 q 536 811 558 856 q 583 763 564 790 q 613 703 603 735 q 643 537 640 624 q 635 364 646 450 q 603 231 628 294 q 528 124 578 168 q 570 14 549 68 q 614 -94 592 -40 l 481 -96 l 417 65 q 342 56 385 58 q 213 78 274 51 l 175 -12 l 38 -12 l 110 153 q 56 274 65 206 q 42 376 47 317 q 36 494 36 435 q 42 609 36 554 q 64 701 49 664 q 103 770 79 740 q 158 821 126 800 l 85 1075 l 228 1074 q 256 968 243 1017 q 283 871 269 919 q 316 875 300 874 q 349 876 332 876 m 171 325 q 183 268 175 296 q 207 219 190 240 q 254 184 224 197 q 338 171 285 171 q 404 183 376 171 q 450 217 432 196 q 479 267 468 239 q 496 328 490 296 q 506 408 501 361 q 508 506 510 456 q 499 602 507 556 q 472 681 492 649 q 421 726 453 713 q 351 743 389 740 q 259 728 304 746 q 192 665 214 710 q 168 588 175 631 q 160 499 161 544 q 163 408 158 453 q 171 325 167 364 z "},"?":{"ha":658,"x_min":38,"x_max":625,"o":"m 38 1022 q 153 1032 92 1029 q 277 1029 215 1035 q 399 1007 339 1024 q 508 958 458 990 q 579 897 550 932 q 617 819 608 861 q 609 733 625 778 q 544 640 593 688 q 431 572 500 596 q 283 533 361 549 l 279 283 l 153 285 l 150 632 q 243 641 194 636 q 338 658 292 646 q 442 715 408 679 q 472 787 475 750 q 431 854 469 824 q 319 897 393 885 q 191 908 257 908 q 54 901 125 908 l 38 1022 m 268 176 l 271 -1 l 146 -6 l 135 169 l 268 176 z "},"_":{"ha":649,"x_min":39,"x_max":614,"o":"m 614 -14 l 39 -11 l 39 111 l 614 114 l 614 -14 z "},"Z":{"ha":514,"x_min":35,"x_max":486,"o":"m 208 128 q 331 130 268 129 q 456 129 393 131 l 456 10 q 249 2 351 8 q 44 -14 147 -4 l 35 115 q 50 117 42 117 q 67 119 58 117 q 199 522 135 321 q 326 925 264 722 q 190 908 257 917 q 56 889 124 900 l 38 1019 q 479 1061 253 1049 l 486 942 q 472 940 479 940 q 458 936 465 939 q 336 531 397 732 q 208 128 275 331 z "},"Y":{"ha":588,"x_min":8,"x_max":567,"o":"m 567 985 l 361 407 q 353 195 356 300 q 350 -17 351 90 l 229 -17 q 228 199 228 92 q 232 418 229 307 l 8 1138 l 144 1139 l 300 618 l 433 988 l 567 985 z "},"X":{"ha":624,"x_min":14,"x_max":604,"o":"m 604 1008 q 479 742 535 863 q 374 504 424 621 q 477 205 424 353 q 590 -90 531 57 l 457 -92 q 413 16 433 -35 q 374 117 393 67 q 337 219 356 167 q 297 331 318 271 q 224 161 261 246 q 151 -8 188 76 l 14 -8 q 67 115 39 50 q 125 246 96 179 q 183 378 154 313 q 236 501 211 443 q 146 789 189 644 q 61 1079 103 933 l 204 1078 q 233 973 219 1022 q 259 876 246 924 q 286 781 272 829 q 317 676 300 732 q 395 845 356 761 q 471 1013 435 929 l 604 1008 l 604 1008 z "},"W":{"ha":808,"x_min":38,"x_max":789,"o":"m 665 1063 l 789 1060 l 669 1 l 518 -1 q 483 268 506 129 q 439 536 460 407 l 349 0 l 199 -1 q 123 511 164 250 q 38 1022 82 772 l 165 1025 q 222 683 197 854 q 275 339 247 513 q 313 560 297 472 q 339 703 329 647 q 356 790 349 758 q 367 845 363 822 q 375 890 371 868 q 386 947 379 911 l 494 949 q 543 662 518 796 q 586 414 568 528 l 665 1063 z "},"V":{"ha":490,"x_min":26,"x_max":460,"o":"m 156 -11 l 26 864 l 157 867 l 244 224 q 285 630 264 428 q 332 1036 306 832 l 460 1033 q 403 513 429 775 q 360 -7 378 251 l 156 -11 z "},"U":{"ha":551,"x_min":35,"x_max":522,"o":"m 492 985 q 513 648 503 817 q 514 311 522 479 q 503 190 511 249 q 471 85 496 131 q 402 17 447 43 q 305 -17 357 -10 q 201 -10 253 -24 q 113 42 149 4 q 63 126 79 75 q 46 240 47 176 q 37 613 39 426 q 42 996 35 799 l 174 994 q 165 733 167 864 q 165 475 163 601 q 168 409 168 443 q 169 343 168 375 q 170 326 169 335 q 172 303 171 317 q 173 268 172 289 q 176 214 174 247 q 192 156 176 179 q 229 122 207 132 q 278 113 251 111 q 329 128 306 114 q 369 168 353 142 q 389 233 386 194 q 394 376 393 300 q 394 530 396 453 q 389 681 392 607 q 383 815 386 754 q 375 920 379 876 q 369 982 371 964 l 492 985 z "},"T":{"ha":590,"x_min":28,"x_max":553,"o":"m 349 1051 q 352 788 351 925 q 352 512 353 651 q 349 235 351 372 q 342 -28 346 97 l 221 -22 q 226 239 225 103 q 227 514 228 375 q 224 790 226 653 q 217 1054 221 928 l 28 1056 l 31 1186 l 553 1169 l 550 1050 l 349 1051 z "},"S":{"ha":593,"x_min":31,"x_max":565,"o":"m 375 817 q 304 867 342 861 q 239 853 267 874 q 203 792 211 833 q 219 699 194 750 q 266 633 238 663 q 327 578 294 604 q 394 524 360 551 q 458 464 428 497 q 520 369 499 419 q 545 266 542 318 q 533 164 549 214 q 482 71 517 114 q 399 3 447 28 q 293 -19 350 -21 q 190 5 236 -19 q 109 69 143 29 q 55 160 75 108 q 31 269 35 213 l 157 267 q 167 208 158 239 q 193 153 176 178 q 235 113 210 128 q 296 100 261 97 q 367 131 336 101 q 408 203 397 161 q 408 294 419 246 q 353 381 396 342 q 301 424 331 400 q 242 475 272 449 q 184 529 213 501 q 135 583 156 557 q 90 661 107 617 q 69 753 72 706 q 80 845 67 800 q 126 926 93 890 q 201 979 157 960 q 291 1000 244 999 q 383 983 338 1001 q 461 924 428 965 q 525 810 501 875 q 565 682 549 746 l 438 650 q 415 733 429 685 q 375 817 400 781 z "},"R":{"ha":601,"x_min":21,"x_max":571,"o":"m 472 919 q 534 835 511 885 q 564 731 557 786 q 562 620 571 676 q 528 515 553 564 q 465 426 504 465 q 369 369 425 388 q 331 361 350 363 q 451 157 393 261 q 558 -56 508 53 l 449 -106 q 328 119 392 10 q 193 335 264 228 q 191 163 192 247 q 190 -8 190 78 l 69 -10 q 69 435 67 214 q 78 881 71 657 q 52 879 65 881 q 25 878 39 878 l 21 1010 q 143 1015 81 1014 q 265 1006 206 1015 q 378 977 325 997 q 472 919 431 957 m 196 475 q 273 480 238 475 q 336 496 308 485 q 405 555 378 513 q 440 647 432 597 q 436 747 449 697 q 389 828 424 796 q 312 865 357 856 q 210 876 267 874 q 200 676 203 776 q 196 475 197 576 z "},"Q":{"ha":678,"x_min":36,"x_max":649,"o":"m 350 1001 q 434 985 392 1000 q 513 944 476 971 q 577 880 550 918 q 615 793 604 842 q 646 592 643 697 q 638 383 649 488 q 623 288 633 335 q 595 198 613 240 q 552 120 578 156 q 490 60 526 85 l 500 -58 l 379 -71 q 374 -33 376 -54 q 368 14 371 -11 q 356 13 361 14 q 343 13 350 13 q 240 28 289 10 q 153 82 192 47 q 90 166 115 117 q 56 275 64 215 q 42 398 47 328 q 36 541 36 468 q 42 681 36 614 q 64 792 49 747 q 112 886 82 846 q 180 952 142 926 q 262 990 218 978 q 350 1001 306 1003 m 175 332 q 188 257 181 293 q 213 193 196 221 q 262 149 231 165 q 346 132 293 132 l 357 132 q 347 244 351 188 q 340 349 343 301 q 334 432 336 397 q 332 478 332 467 l 464 483 q 469 380 465 450 q 479 226 472 310 q 497 278 490 250 q 508 336 503 306 q 518 440 514 379 q 521 566 522 501 q 511 692 519 631 q 482 794 503 753 q 431 855 463 836 q 360 876 399 874 q 266 856 311 879 q 197 775 221 833 q 173 674 181 729 q 164 559 165 618 q 167 441 163 500 q 175 332 171 382 z "},"P":{"ha":613,"x_min":25,"x_max":585,"o":"m 488 975 q 540 901 519 947 q 572 800 561 856 q 583 683 582 744 q 577 564 585 622 q 553 455 569 506 q 514 369 538 404 q 394 278 468 304 q 222 261 319 253 l 218 -8 l 97 -6 l 97 918 q 62 917 82 918 q 26 915 42 915 l 25 1047 q 183 1046 100 1044 q 340 1035 265 1047 q 421 1014 383 1028 q 488 975 458 1000 m 393 415 q 438 493 422 439 q 458 610 454 547 q 454 733 461 674 q 432 829 447 793 q 397 883 417 865 q 351 908 376 901 q 294 916 325 915 q 228 918 263 917 l 222 382 q 313 384 267 381 q 393 415 360 388 z "},"O":{"ha":682,"x_min":36,"x_max":649,"o":"m 350 1001 q 434 985 392 1000 q 513 944 476 971 q 577 880 550 918 q 615 793 604 842 q 646 592 643 697 q 638 383 649 488 q 613 250 631 315 q 562 133 596 185 q 474 49 528 82 q 343 13 421 17 q 240 28 289 10 q 153 82 192 47 q 90 166 115 117 q 56 275 64 215 q 42 398 47 328 q 36 541 36 468 q 42 681 36 614 q 64 792 49 747 q 112 886 82 846 q 180 952 142 926 q 262 990 218 978 q 350 1001 306 1003 m 175 332 q 188 257 181 293 q 213 193 196 221 q 262 149 231 165 q 346 132 293 132 q 413 148 385 132 q 460 192 442 164 q 490 258 479 221 q 508 336 501 294 q 518 440 514 379 q 521 566 522 501 q 511 692 519 631 q 482 794 503 753 q 431 855 463 836 q 360 876 399 874 q 266 856 311 879 q 197 775 221 833 q 173 674 181 729 q 164 559 165 618 q 167 441 163 500 q 175 332 171 382 z "},"N":{"ha":543,"x_min":11,"x_max":497,"o":"m 351 33 q 265 264 307 149 q 181 497 222 379 q 191 232 188 363 q 196 -31 194 101 l 74 -31 q 59 501 71 235 q 11 1033 47 767 l 142 1049 q 188 869 161 957 q 247 692 215 781 q 310 517 278 604 q 372 340 342 429 l 365 890 l 497 890 l 492 42 l 351 33 z "},"M":{"ha":735,"x_min":28,"x_max":722,"o":"m 722 1024 q 695 472 703 749 q 685 -85 688 194 l 563 -85 q 564 227 563 74 q 571 540 565 381 q 491 333 531 435 q 411 129 451 231 l 306 129 q 238 284 272 211 q 174 443 204 357 q 176 234 176 339 q 172 25 176 129 l 51 26 q 49 447 54 238 q 28 867 43 656 q 103 870 76 869 q 143 871 131 871 q 160 871 156 871 q 167 871 164 871 q 253 595 208 731 q 349 325 299 460 q 377 401 358 353 q 419 510 396 450 q 467 640 442 571 q 516 778 492 710 q 560 913 540 847 q 592 1031 579 978 q 608 1031 601 1031 q 626 1030 614 1031 q 660 1028 639 1029 q 722 1024 682 1026 z "},"L":{"ha":522,"x_min":32,"x_max":497,"o":"m 199 113 q 348 109 274 113 q 497 99 422 106 l 490 -21 q 265 -15 376 -14 q 42 -26 153 -17 l 32 106 q 56 106 44 106 q 78 107 67 106 l 71 1010 l 204 1010 l 199 113 l 199 113 z "},"K":{"ha":607,"x_min":38,"x_max":575,"o":"m 563 1018 q 459 764 514 875 q 339 554 404 653 q 447 251 388 400 q 575 -43 506 101 l 453 -60 q 394 63 421 4 q 342 181 367 122 q 293 299 317 239 q 246 426 269 360 q 215 388 231 406 q 181 357 200 371 q 176 -22 181 167 l 56 -22 q 52 507 56 242 q 38 1035 49 772 l 169 1038 q 176 790 172 914 q 179 540 179 665 q 321 774 257 653 q 432 1024 385 894 l 563 1018 l 563 1018 z "},"I":{"ha":197,"x_min":28,"x_max":160,"o":"m 28 982 l 160 982 l 156 -1 l 33 -1 l 28 982 z "},"J":{"ha":558,"x_min":29,"x_max":521,"o":"m 521 1103 q 519 760 519 900 q 517 527 518 619 q 517 382 517 435 q 516 303 517 329 q 515 269 515 276 q 514 257 514 261 q 482 100 514 169 q 410 -1 456 42 q 311 -61 365 -43 q 200 -66 257 -79 q 93 0 143 -53 q 63 43 75 19 q 44 92 51 67 q 31 206 29 146 q 39 321 32 265 l 169 319 q 161 247 167 288 q 161 167 156 206 q 201 76 169 103 q 270 56 233 50 q 339 99 307 63 q 382 194 371 135 q 385 219 383 204 q 388 263 386 233 q 390 344 389 293 q 393 478 392 394 q 396 684 394 563 q 400 976 397 806 l 108 967 l 111 1099 l 521 1103 l 521 1103 z "},"z":{"ha":558,"x_min":40,"x_max":532,"o":"m 531 856 l 197 172 q 349 176 274 175 q 500 175 424 176 l 500 53 q 49 32 276 51 l 40 164 q 44 169 42 164 q 57 196 47 175 q 87 258 67 217 q 143 372 107 299 q 233 553 179 444 q 367 818 288 663 l 71 840 l 81 971 l 532 926 l 531 856 z "},"y":{"ha":557,"x_min":21,"x_max":546,"o":"m 290 624 q 350 829 318 728 q 418 1033 382 931 l 546 1029 q 498 878 522 957 q 451 719 474 799 q 408 559 428 639 q 371 404 388 479 l 368 406 q 369 203 369 303 q 367 4 369 104 l 242 6 q 241 206 243 106 q 235 407 239 306 q 132 677 185 544 q 21 944 79 810 l 154 961 q 190 874 174 915 q 224 792 207 832 q 256 710 240 751 q 290 624 272 669 z "},"x":{"ha":557,"x_min":19,"x_max":519,"o":"m 479 903 q 404 717 442 810 q 331 529 367 625 l 519 118 l 396 106 l 268 361 q 213 203 239 282 q 160 44 186 124 l 24 57 q 63 172 42 113 q 107 292 85 232 q 151 412 129 353 q 193 525 172 471 l 19 889 l 158 901 l 258 690 q 312 820 285 756 q 367 951 339 885 l 494 936 l 479 903 z "},"w":{"ha":844,"x_min":38,"x_max":835,"o":"m 518 731 q 601 526 561 628 q 682 321 642 425 q 687 665 682 494 q 704 1011 692 836 l 835 1003 q 819 767 826 889 q 808 522 813 646 q 799 276 803 399 q 796 40 796 154 l 658 39 q 556 299 610 171 q 449 553 503 426 q 332 288 393 418 q 204 26 271 157 l 60 28 q 45 445 53 236 q 38 861 38 654 l 169 860 q 169 242 165 550 q 275 475 222 357 q 378 725 328 593 l 518 731 z "},"v":{"ha":567,"x_min":22,"x_max":546,"o":"m 247 333 q 329 653 286 494 q 421 974 372 813 l 546 967 q 419 488 481 733 q 310 8 358 243 l 181 7 l 22 908 l 157 917 l 247 333 l 247 333 z "},"u":{"ha":531,"x_min":22,"x_max":497,"o":"m 364 872 l 497 871 l 472 51 l 421 51 q 294 24 361 25 q 171 48 228 22 q 74 126 114 74 q 29 257 35 178 q 32 557 22 404 q 51 865 42 710 l 183 857 q 176 714 181 788 q 165 566 171 640 q 157 418 160 492 q 158 274 154 344 q 178 208 161 236 q 222 165 194 181 q 282 148 249 150 q 351 160 315 146 l 364 872 z "},"t":{"ha":564,"x_min":29,"x_max":539,"o":"m 532 800 q 446 802 489 801 q 360 806 403 803 q 306 0 338 404 l 181 7 q 208 409 196 210 q 228 810 219 608 q 127 815 176 813 q 29 821 78 818 l 35 953 q 539 924 286 933 l 532 800 l 532 800 z "},"s":{"ha":567,"x_min":21,"x_max":538,"o":"m 242 551 q 327 526 279 543 q 418 483 375 510 q 493 419 461 456 q 531 335 525 382 q 523 243 538 289 q 476 161 508 197 q 388 97 440 115 q 278 75 336 78 q 160 84 218 72 q 44 115 103 96 l 81 236 q 126 219 99 228 q 183 204 153 210 q 246 197 214 199 q 307 203 278 196 q 372 233 349 211 q 401 283 396 256 q 389 338 406 310 q 333 386 372 365 q 253 415 296 406 q 169 440 211 425 q 63 492 97 454 q 24 574 28 529 q 44 663 21 618 q 113 739 68 708 q 198 776 149 764 q 300 792 247 789 q 406 791 353 796 q 503 778 458 786 l 467 650 q 434 656 456 653 q 385 660 413 658 q 326 661 357 661 q 268 660 296 661 q 204 644 229 657 q 174 614 179 631 q 184 580 168 597 q 242 551 200 563 z "},"r":{"ha":601,"x_min":29,"x_max":574,"o":"m 394 950 q 531 841 489 918 q 569 667 574 764 q 551 552 565 601 q 507 465 536 503 q 433 399 478 426 q 325 351 388 372 l 550 93 l 410 69 l 196 299 q 196 185 196 240 q 194 75 196 131 l 74 76 q 69 462 71 271 q 61 847 67 653 l 32 844 l 29 978 q 110 984 65 982 q 204 983 156 986 q 301 972 253 981 q 394 950 350 964 m 365 499 q 412 544 394 517 q 437 604 429 572 q 444 671 444 636 q 439 738 444 706 q 418 790 433 767 q 369 824 403 813 q 284 844 329 839 q 192 851 239 849 q 195 660 194 756 q 196 471 196 565 q 269 471 233 468 q 320 480 296 474 q 365 499 344 486 z "},"q":{"ha":682,"x_min":36,"x_max":646,"o":"m 349 876 q 433 863 390 875 q 511 829 475 851 q 574 775 547 807 q 613 703 601 743 q 643 537 640 624 q 635 364 646 450 q 599 224 626 290 q 515 114 572 158 q 543 37 529 75 q 572 -40 557 -1 l 447 -56 l 401 63 q 342 56 371 56 q 240 68 288 53 q 153 113 192 83 q 89 183 114 142 q 56 274 64 224 q 42 376 47 317 q 36 494 36 435 q 42 609 36 554 q 64 701 49 664 q 112 781 82 747 q 180 835 142 814 q 261 867 218 857 q 349 876 304 878 m 361 589 q 469 247 413 415 q 485 285 479 265 q 496 328 492 306 q 506 408 501 361 q 508 506 510 456 q 499 602 507 556 q 472 681 492 649 q 421 726 453 713 q 351 743 389 740 q 259 728 304 746 q 192 665 214 710 q 168 588 175 631 q 160 499 161 544 q 163 408 158 453 q 171 325 167 364 q 183 268 175 296 q 207 219 190 240 q 254 184 224 197 q 338 171 285 171 q 349 171 344 171 q 361 172 354 171 q 292 372 325 272 q 226 571 258 471 l 361 589 z "},"o":{"ha":682,"x_min":36,"x_max":646,"o":"m 349 876 q 433 863 390 875 q 511 829 475 851 q 574 775 547 807 q 613 703 601 743 q 643 537 640 624 q 635 364 646 450 q 610 253 628 307 q 559 156 593 199 q 472 86 525 114 q 342 56 418 58 q 240 68 288 53 q 153 113 192 83 q 89 183 114 142 q 56 274 64 224 q 42 376 47 317 q 36 494 36 435 q 42 609 36 554 q 64 701 49 664 q 112 781 82 747 q 180 835 142 814 q 261 867 218 857 q 349 876 304 878 m 171 325 q 183 268 175 296 q 207 219 190 240 q 254 184 224 197 q 338 171 285 171 q 404 183 376 171 q 450 217 432 196 q 479 267 468 239 q 496 328 490 296 q 506 408 501 361 q 508 506 510 456 q 499 602 507 556 q 472 681 492 649 q 421 726 453 713 q 351 743 389 740 q 259 728 304 746 q 192 665 214 710 q 168 588 175 631 q 160 499 161 544 q 163 408 158 453 q 171 325 167 364 z "},"p":{"ha":593,"x_min":33,"x_max":568,"o":"m 547 740 q 565 638 561 692 q 560 532 568 585 q 533 429 553 479 q 482 338 514 379 q 365 264 438 286 q 210 242 293 242 q 199 102 204 171 q 188 -35 194 33 l 68 -25 q 88 392 83 183 q 90 810 93 600 l 35 810 l 33 943 q 121 944 74 944 q 217 941 168 944 q 315 929 267 938 q 406 904 363 921 q 499 841 464 883 q 547 740 533 799 m 385 426 q 416 501 401 450 q 433 607 431 551 q 423 711 436 663 q 372 778 410 760 q 299 795 336 793 q 224 803 263 797 q 215 364 224 585 q 318 376 278 364 q 385 426 358 389 z "},"n":{"ha":581,"x_min":36,"x_max":561,"o":"m 396 -65 q 281 218 336 76 q 171 504 225 360 q 168 264 171 383 q 158 25 165 144 l 39 31 q 42 465 43 249 q 36 901 42 682 l 171 903 q 290 558 229 725 q 414 224 351 392 q 416 581 411 404 q 429 939 421 758 l 561 932 q 543 435 549 682 q 540 -61 538 189 l 396 -65 z "},"m":{"ha":750,"x_min":26,"x_max":708,"o":"m 706 879 q 707 388 708 632 q 700 -101 706 144 l 579 -99 q 582 207 581 56 q 581 513 583 358 l 386 -1 l 290 0 l 164 451 l 144 3 l 26 3 l 53 925 l 188 921 l 347 260 l 574 878 l 706 879 z "},"a":{"ha":572,"x_min":21,"x_max":544,"o":"m 544 188 q 520 186 532 188 q 494 185 508 185 q 513 67 504 129 q 528 -50 521 6 l 408 -56 q 388 64 397 4 q 371 182 379 124 l 196 182 q 178 119 188 150 q 163 54 169 88 l 39 63 l 67 188 q 44 188 56 188 q 21 189 33 188 l 29 322 l 103 318 q 178 594 139 458 q 258 869 217 731 l 383 869 l 479 308 q 509 308 493 308 q 542 311 525 308 l 544 188 m 231 311 q 290 310 261 311 q 349 308 319 308 l 306 568 q 231 311 265 443 z "},"b":{"ha":622,"x_min":28,"x_max":581,"o":"m 479 514 q 523 496 506 511 q 551 457 540 481 q 568 405 563 433 q 576 349 574 376 q 580 267 581 308 q 571 185 579 225 q 545 108 563 144 q 499 44 528 72 q 441 5 472 18 q 369 -12 410 -8 q 279 -11 329 -15 q 167 3 229 -7 l 28 24 l 43 144 l 110 136 l 79 803 q 60 803 69 803 q 39 801 50 803 l 32 935 q 97 937 57 936 q 181 937 136 938 q 272 933 225 936 q 357 922 318 929 q 454 878 415 910 q 513 803 493 847 q 532 703 532 758 q 514 589 532 649 q 499 551 507 569 q 479 514 492 532 m 219 529 q 288 538 251 531 q 354 569 325 546 q 385 613 372 583 q 401 676 397 643 q 397 738 404 708 q 364 782 389 767 q 291 801 333 800 q 213 803 249 801 l 219 529 m 318 108 q 392 131 364 108 q 434 188 419 153 q 452 264 449 222 q 450 343 456 306 q 440 377 449 365 q 418 394 432 389 q 385 401 404 400 q 344 403 367 403 q 284 400 314 401 q 224 396 254 399 l 235 115 q 285 110 267 113 q 318 108 303 108 z "},"c":{"ha":553,"x_min":29,"x_max":531,"o":"m 193 565 q 163 476 171 521 q 163 389 156 431 q 194 314 171 347 q 257 263 217 281 q 364 240 306 239 q 478 257 422 242 l 510 138 q 414 122 460 126 q 319 122 368 117 q 182 172 240 133 q 88 266 124 211 q 41 388 53 321 q 42 521 29 454 q 92 649 54 588 q 194 757 131 711 q 355 817 267 808 q 531 799 443 826 l 479 676 q 372 689 431 696 q 270 651 318 682 q 193 565 222 619 z "},"d":{"ha":626,"x_min":35,"x_max":600,"o":"m 35 936 q 158 933 88 936 q 300 917 229 931 q 433 874 371 903 q 533 796 496 846 q 574 713 560 758 q 594 618 589 667 q 599 519 600 569 q 592 421 597 468 q 565 296 585 358 q 506 182 546 233 q 310 59 429 82 q 36 64 190 36 q 47 444 39 263 q 71 803 54 625 l 35 803 l 35 936 m 464 418 q 468 533 467 475 q 458 651 469 590 q 422 720 449 693 q 358 764 394 747 q 281 788 321 781 q 204 796 240 794 q 167 169 171 483 q 390 238 311 157 q 464 418 451 301 z "},"e":{"ha":504,"x_min":18,"x_max":478,"o":"m 35 871 q 256 848 146 856 q 478 833 365 840 l 474 713 q 341 717 407 714 q 208 722 275 719 q 202 622 204 672 q 197 519 200 571 l 401 517 l 401 396 l 193 392 q 192 293 192 342 q 192 196 192 244 q 326 199 258 199 q 461 200 393 200 l 463 76 q 258 69 358 74 q 54 57 158 65 l 47 190 l 68 190 q 66 290 67 240 q 67 390 65 340 l 36 390 l 36 522 l 68 522 q 76 732 71 628 q 18 740 47 733 l 35 871 z "},"f":{"ha":564,"x_min":32,"x_max":535,"o":"m 535 858 q 403 856 469 856 q 272 857 338 856 l 256 600 l 497 599 l 499 479 l 250 472 l 225 -6 l 101 0 l 122 471 l 42 469 l 40 600 l 126 600 l 140 860 q 85 862 113 861 q 32 865 58 863 l 42 996 q 287 984 164 988 q 533 982 410 981 l 535 858 l 535 858 z "},"g":{"ha":678,"x_min":36,"x_max":649,"o":"m 640 -36 l 519 -35 l 521 33 q 428 17 476 19 q 335 24 381 15 q 246 53 289 33 q 168 107 203 74 q 94 203 124 147 q 51 323 65 260 q 38 453 36 386 q 60 581 40 519 q 139 720 85 661 q 265 815 193 779 q 419 863 336 851 q 588 858 503 875 l 556 715 q 444 731 500 733 q 338 706 388 728 q 249 644 288 685 q 189 549 210 604 q 166 438 168 494 q 179 329 164 381 q 225 236 194 278 q 300 170 256 194 q 401 143 344 146 q 524 168 457 140 l 529 429 q 454 430 493 429 q 378 433 415 431 l 386 565 q 518 556 453 558 q 649 556 583 554 l 640 -36 z "},"h":{"ha":622,"x_min":22,"x_max":593,"o":"m 460 893 l 593 893 l 590 -37 l 465 -37 l 463 413 q 344 405 404 408 q 225 399 285 401 q 238 190 233 294 q 249 -18 243 85 l 128 -24 q 114 185 121 81 q 99 393 107 289 q 61 392 79 392 q 24 392 43 392 l 22 525 l 88 525 q 69 730 79 628 q 47 935 58 832 l 178 951 q 199 738 189 843 q 218 528 210 632 q 340 532 279 529 q 463 539 400 535 l 460 893 z "},"i":{"ha":225,"x_min":38,"x_max":196,"o":"m 38 74 q 43 476 38 276 q 63 876 49 675 l 196 864 q 172 469 181 665 q 160 72 163 272 l 38 74 l 38 74 z "},"j":{"ha":546,"x_min":25,"x_max":507,"o":"m 503 901 q 503 606 507 746 q 488 325 499 465 q 468 196 481 256 q 433 91 456 136 q 376 17 411 46 q 288 -18 340 -11 q 163 -23 225 -28 q 33 -12 100 -18 l 25 404 l 158 404 l 157 104 q 185 101 175 101 q 219 103 196 101 q 322 167 290 108 q 360 336 353 226 q 372 557 367 447 q 378 778 376 667 l 72 782 l 74 914 l 503 901 l 503 901 z "},"k":{"ha":558,"x_min":31,"x_max":531,"o":"m 531 924 q 469 803 503 865 q 399 681 436 742 q 321 562 361 619 q 242 456 281 504 q 308 344 272 404 q 378 223 343 285 q 446 101 413 161 q 507 -12 479 40 l 374 -18 q 272 157 324 71 q 165 328 221 243 l 156 1 l 31 6 l 57 969 l 189 965 l 174 572 q 294 749 240 658 q 393 936 349 840 l 531 924 z "},"l":{"ha":435,"x_min":40,"x_max":396,"o":"m 167 138 q 279 135 222 136 q 396 129 336 133 l 389 7 q 215 8 308 8 q 40 6 121 8 l 50 903 l 183 901 l 167 138 z "},"!":{"ha":258,"x_min":51,"x_max":236,"o":"m 61 276 q 92 656 81 468 q 103 1036 103 844 l 236 1035 q 219 649 232 840 q 183 264 206 457 l 61 276 m 51 169 l 185 164 l 172 26 l 51 31 l 51 169 z "},"\"":{"ha":363,"x_min":39,"x_max":322,"o":"m 42 1147 l 167 1147 q 155 1042 164 1094 q 126 939 146 989 l 64 944 l 78 1049 q 63 1056 79 1054 q 39 1058 47 1058 l 42 1147 m 197 1147 l 322 1147 q 310 1042 319 1094 q 282 939 301 989 l 219 944 l 233 1049 q 219 1056 235 1054 q 194 1058 203 1058 l 197 1147 z "},"$":{"ha":567,"x_min":21,"x_max":538,"o":"m 256 125 q 150 136 203 125 q 44 165 97 147 l 81 286 q 158 258 108 271 q 256 247 207 246 l 256 465 q 212 478 233 472 q 169 490 190 483 q 63 542 97 504 q 24 624 28 579 q 44 713 21 668 q 113 789 68 758 q 177 820 140 808 q 254 838 214 832 l 254 964 l 326 964 l 326 843 q 419 840 374 844 q 503 828 464 835 l 467 700 q 410 708 451 704 q 325 711 369 711 l 325 576 q 394 546 360 564 q 458 504 429 528 q 506 451 486 481 q 531 385 526 421 q 523 293 538 339 q 476 211 508 247 q 408 156 447 175 q 324 129 368 136 l 324 -1 l 257 -1 l 256 125 m 325 440 l 324 257 q 378 290 358 268 q 401 339 399 313 q 388 391 404 365 q 333 436 371 417 l 325 440 m 254 599 l 254 708 q 198 690 219 703 q 173 660 176 676 q 185 628 169 644 q 242 601 201 611 l 254 599 z "},"%":{"ha":1090,"x_min":32,"x_max":1051,"o":"m 614 982 l 746 982 l 439 -1 l 317 -1 l 614 982 m 251 990 q 310 981 281 989 q 366 959 340 974 q 410 924 392 944 q 438 878 429 904 q 459 771 457 826 q 453 660 461 715 q 436 588 449 622 q 400 525 424 553 q 339 480 376 497 q 247 461 301 463 q 175 469 210 460 q 113 498 140 479 q 68 543 86 517 q 44 601 50 569 q 35 667 39 629 q 32 744 32 706 q 36 817 32 782 q 51 876 40 853 q 133 964 76 936 q 251 990 189 992 m 142 646 q 149 614 144 629 q 165 586 154 599 q 193 567 175 574 q 243 560 211 560 q 313 586 292 560 q 340 647 333 613 q 346 692 343 665 q 348 746 349 718 q 342 800 347 774 q 326 844 338 826 q 253 879 300 876 q 196 870 224 881 q 156 836 168 860 q 135 742 135 796 q 142 646 136 689 m 842 533 q 901 524 871 532 q 956 502 931 517 q 1001 467 982 488 q 1028 421 1019 447 q 1049 314 1047 369 q 1043 203 1051 258 q 1026 131 1039 165 q 990 68 1014 96 q 929 23 967 40 q 838 4 892 6 q 765 13 800 3 q 703 41 731 22 q 658 86 676 60 q 635 144 640 113 q 626 210 629 172 q 622 287 622 249 q 626 360 622 325 q 642 419 631 396 q 723 507 667 479 q 842 533 779 535 m 732 189 q 740 157 735 172 q 755 129 744 142 q 783 110 765 117 q 833 103 801 103 q 903 129 882 103 q 931 190 924 156 q 936 235 933 208 q 938 289 939 261 q 933 343 938 317 q 917 388 928 369 q 843 422 890 419 q 786 413 814 424 q 746 379 758 403 q 726 285 725 339 q 732 189 726 232 z "},"&":{"ha":692,"x_min":39,"x_max":656,"o":"m 656 404 l 528 404 q 531 242 528 322 q 539 86 533 163 l 606 89 l 608 -22 l 464 -28 q 313 -22 381 -26 q 193 -1 244 -17 q 108 45 142 14 q 60 129 74 76 q 43 222 47 174 q 46 317 39 269 q 73 406 53 364 q 129 482 93 449 q 75 606 88 540 q 69 735 63 672 q 93 839 75 788 q 147 925 111 890 q 248 984 189 964 q 372 1010 307 1004 q 503 1012 438 1017 q 625 997 569 1007 l 617 875 q 454 894 518 890 q 351 893 390 897 q 290 879 311 889 q 257 858 269 869 q 210 785 221 828 q 199 694 199 743 q 203 624 199 657 q 228 567 208 590 q 287 533 247 543 q 396 531 326 522 l 396 608 l 529 610 q 528 570 528 590 q 528 531 528 550 l 656 532 l 656 404 m 401 404 q 386 404 394 404 q 371 406 378 404 l 369 406 q 310 404 332 406 q 275 402 288 403 q 256 400 263 401 q 246 397 250 399 q 192 340 211 385 q 173 245 172 296 q 197 150 174 194 q 268 93 219 106 q 345 82 307 82 q 415 83 383 82 q 406 244 408 158 q 401 404 404 331 z "},"'":{"ha":206,"x_min":39,"x_max":167,"o":"m 42 1147 l 167 1147 q 155 1042 164 1094 q 126 939 146 989 l 64 944 l 78 1049 q 63 1056 79 1054 q 39 1058 47 1058 l 42 1147 z "},"(":{"ha":458,"x_min":38,"x_max":415,"o":"m 400 1058 q 386 1060 396 1060 q 286 1031 335 1064 q 214 918 238 999 q 188 777 196 856 q 178 617 179 699 q 181 453 178 535 q 189 301 185 372 q 203 197 194 247 q 230 107 211 146 q 282 44 249 68 q 371 21 315 21 q 384 22 378 21 q 397 24 390 22 l 413 -110 q 394 -112 403 -112 q 374 -114 385 -112 q 262 -93 315 -118 q 166 -22 208 -68 q 95 92 124 25 q 58 239 67 158 q 43 404 49 310 q 38 596 38 499 q 44 783 38 693 q 68 932 51 872 q 120 1058 88 1004 q 194 1148 153 1113 q 284 1199 236 1183 q 381 1214 332 1215 q 415 1210 399 1214 l 400 1058 z "},")":{"ha":458,"x_min":36,"x_max":414,"o":"m 51 38 q 65 36 56 36 q 116 40 90 33 q 165 64 142 47 q 206 109 188 81 q 238 178 225 138 q 264 318 256 240 q 273 478 272 396 q 270 642 274 561 q 263 794 267 724 q 249 899 257 849 q 222 989 240 950 q 169 1051 203 1028 q 81 1075 136 1075 q 67 1074 74 1075 q 54 1072 61 1074 l 39 1206 q 58 1208 49 1208 q 78 1210 67 1208 q 190 1189 136 1214 q 285 1117 243 1164 q 356 1004 328 1071 q 393 857 385 938 q 408 692 403 786 q 414 500 414 597 q 407 313 414 403 q 383 164 400 224 q 331 37 364 90 q 256 -52 297 -17 q 167 -104 214 -87 q 71 -118 119 -121 q 36 -114 53 -118 l 51 38 z "},"*":{"ha":378,"x_min":38,"x_max":338,"o":"m 296 782 l 228 843 l 229 743 l 146 743 l 146 842 l 79 782 l 38 854 l 139 892 l 38 931 l 78 1001 l 146 943 l 147 1042 l 228 1042 l 228 944 l 297 1001 l 338 931 l 236 892 l 338 854 l 296 782 z "},"+":{"ha":531,"x_min":39,"x_max":488,"o":"m 199 264 l 199 426 l 39 428 l 39 550 l 200 550 l 201 713 l 324 713 l 324 551 l 488 553 l 488 425 l 325 426 l 326 264 l 199 264 z "},",":{"ha":275,"x_min":35,"x_max":229,"o":"m 35 -28 q 83 101 67 33 q 79 103 83 103 q 70 104 75 104 q 61 105 65 104 q 57 107 57 106 q 62 155 63 131 q 64 203 61 179 l 229 204 q 191 73 222 131 q 107 -32 160 15 l 35 -28 l 35 -28 z "},"-":{"ha":531,"x_min":39,"x_max":488,"o":"m 488 425 l 39 428 l 39 550 l 488 553 l 488 425 z "},".":{"ha":236,"x_min":53,"x_max":186,"o":"m 53 163 l 186 157 l 174 19 l 53 24 l 53 163 z "},";":{"ha":275,"x_min":35,"x_max":229,"o":"m 35 -28 q 83 101 67 33 q 79 103 83 103 q 70 104 75 104 q 61 105 65 104 q 57 107 57 106 q 62 155 63 131 q 64 203 61 179 l 229 204 q 191 73 222 131 q 107 -32 160 15 l 35 -28 m 76 569 l 210 564 l 197 426 l 76 431 l 76 569 z "},"=":{"ha":531,"x_min":39,"x_max":488,"o":"m 488 508 l 39 511 l 39 633 l 488 636 l 488 508 m 488 228 l 39 231 l 39 353 l 488 356 l 488 228 z "},"¢":{"ha":553,"x_min":31,"x_max":531,"o":"m 282 40 l 282 129 q 160 188 211 146 q 78 284 108 229 q 39 403 47 339 q 44 531 31 467 q 96 654 58 596 q 194 757 133 713 q 285 801 238 788 l 285 885 l 407 885 l 407 819 q 531 799 468 817 l 479 676 q 444 686 463 683 q 407 690 426 689 l 408 243 q 444 249 426 246 q 478 257 461 251 l 510 138 q 410 121 457 125 l 410 40 l 282 40 m 193 565 q 163 476 171 521 q 163 389 156 431 q 194 314 171 347 q 257 263 217 281 q 269 258 264 260 q 282 253 275 256 l 283 660 q 233 620 256 643 q 193 565 210 597 z "},"€":{"ha":629,"x_min":39,"x_max":601,"o":"m 497 400 l 224 401 q 231 345 226 374 q 243 289 236 317 q 287 192 257 231 q 349 147 317 154 q 409 170 381 140 q 451 278 438 200 q 456 309 454 293 q 458 340 457 325 l 581 329 q 565 228 576 281 q 528 132 553 176 q 465 56 504 88 q 367 19 425 25 q 281 37 322 17 q 204 97 240 57 q 128 235 154 156 q 93 403 101 315 l 39 403 l 39 499 l 89 499 q 88 516 89 507 q 89 535 88 525 l 39 535 l 39 632 l 97 632 q 103 676 100 656 q 111 718 107 697 q 142 806 122 765 q 217 917 174 875 q 309 974 261 958 q 405 981 357 989 q 494 942 453 972 q 563 860 535 911 q 601 739 592 808 l 472 699 q 466 722 469 711 q 460 744 463 733 q 419 824 444 799 q 366 847 394 849 q 308 817 338 844 q 257 740 279 790 q 226 633 235 693 l 497 635 l 497 533 l 217 533 l 217 499 l 497 501 l 497 400 z "},"¥":{"ha":581,"x_min":21,"x_max":554,"o":"m 554 194 l 368 194 q 368 99 368 146 q 367 4 368 53 l 242 6 q 242 100 242 53 q 240 194 242 147 l 72 196 l 72 282 l 239 282 q 238 337 239 310 q 235 392 236 364 l 72 393 l 72 479 l 208 479 q 117 713 164 597 q 21 944 71 828 l 154 961 q 190 874 174 915 q 224 792 207 832 q 256 710 240 751 q 290 624 272 669 q 350 829 318 728 q 418 1033 382 931 l 546 1029 q 461 759 503 901 q 388 481 419 617 l 554 481 l 554 392 l 368 392 l 368 282 l 554 283 l 554 194 z "},"A":{"ha":628,"x_min":8,"x_max":601,"o":"m 593 321 l 549 321 q 573 199 560 265 q 601 71 586 132 l 476 65 q 449 192 464 128 q 424 321 435 257 q 328 319 375 321 q 232 315 281 318 q 185 141 207 228 q 143 -35 163 54 l 8 -35 q 52 138 29 44 q 97 308 75 231 q 76 307 86 307 q 56 307 65 307 l 49 436 q 89 440 68 439 q 129 442 110 440 q 210 717 169 581 q 290 993 250 854 l 425 990 q 474 719 449 860 q 525 446 500 578 q 560 443 543 443 q 597 442 578 443 l 593 321 m 263 446 q 330 447 296 447 q 397 447 364 447 q 369 588 382 518 q 342 729 357 658 q 263 446 304 588 z "},"B":{"ha":640,"x_min":26,"x_max":600,"o":"m 511 521 q 566 439 546 485 q 593 343 586 393 q 596 241 600 293 q 579 142 592 189 q 532 51 565 85 q 449 1 499 18 q 331 -22 399 -17 q 183 -28 264 -26 l 43 -22 l 46 97 l 111 94 q 121 524 122 301 q 110 953 119 747 l 35 943 l 26 1074 q 145 1089 81 1083 q 274 1088 210 1094 q 395 1060 338 1082 q 493 996 453 1039 q 546 905 528 960 q 569 792 564 850 q 564 654 576 725 q 511 521 551 583 m 244 436 q 240 265 242 357 q 231 92 238 172 q 300 90 263 90 q 375 101 338 90 q 427 136 407 111 q 458 194 447 161 q 468 265 468 228 q 460 336 468 303 q 435 394 451 369 q 397 429 419 419 q 321 441 361 444 q 244 436 281 438 m 250 565 q 376 579 313 565 q 431 633 418 589 q 443 749 443 678 q 434 849 443 801 q 386 925 425 897 q 326 949 363 942 q 250 956 289 957 l 250 565 z "},"C":{"ha":568,"x_min":24,"x_max":540,"o":"m 399 744 q 358 824 383 799 q 305 847 333 849 q 247 817 276 844 q 196 740 218 790 q 163 619 171 683 q 156 490 156 554 q 164 392 158 444 q 182 289 169 340 q 226 192 196 231 q 288 147 256 154 q 348 170 319 140 q 390 278 376 200 q 394 309 393 293 q 397 340 396 325 l 519 329 q 503 228 515 281 q 467 132 492 176 q 403 56 443 88 q 306 19 364 25 q 220 37 261 17 q 143 97 179 57 q 68 231 94 154 q 33 391 42 307 q 29 560 24 475 q 50 718 35 644 q 81 806 61 765 q 156 917 113 875 q 248 974 200 958 q 344 981 296 989 q 433 942 392 972 q 502 860 474 911 q 540 739 531 808 l 411 699 q 405 722 408 711 q 399 744 401 733 z "},"D":{"ha":743,"x_min":31,"x_max":722,"o":"m 31 969 q 143 978 86 972 q 267 978 200 985 q 442 929 364 967 q 575 835 519 892 q 665 706 631 778 q 711 558 700 635 q 709 404 722 482 q 658 257 696 326 q 547 125 615 178 q 395 44 478 72 q 222 13 313 17 q 43 26 131 8 l 49 142 q 95 139 68 140 q 143 136 122 138 q 135 491 140 314 q 118 846 129 668 q 74 843 99 844 q 32 839 50 842 l 31 969 m 264 138 q 367 161 315 143 q 463 210 419 179 q 539 286 507 242 q 585 389 571 331 q 587 552 604 468 q 524 703 569 636 q 408 813 478 771 q 250 849 338 854 q 262 494 257 671 q 264 138 267 317 z "},"E":{"ha":476,"x_min":36,"x_max":447,"o":"m 200 868 l 203 503 l 344 499 l 343 379 l 204 376 l 208 132 l 446 125 l 443 4 l 44 6 l 47 136 l 83 135 l 79 375 l 36 375 l 36 506 l 76 504 l 69 858 l 39 858 l 38 992 l 446 993 l 447 872 l 200 868 z "},"F":{"ha":629,"x_min":33,"x_max":600,"o":"m 33 1033 l 600 1019 l 599 897 l 250 900 q 245 734 247 818 q 240 565 243 650 q 355 570 299 569 q 469 571 411 571 l 469 449 q 240 440 353 449 q 237 219 238 329 q 238 -1 236 108 l 118 -3 q 114 212 115 106 q 113 428 113 318 q 101 426 107 426 q 86 425 94 425 l 72 553 q 93 556 83 554 q 113 560 103 557 q 115 731 114 644 q 119 900 117 817 l 33 900 l 33 1033 z "},"G":{"ha":567,"x_min":33,"x_max":538,"o":"m 538 392 l 524 392 q 517 274 529 340 q 474 150 504 208 q 399 52 444 92 q 292 15 353 13 q 176 56 224 15 q 99 160 129 96 q 53 303 68 224 q 36 461 39 383 q 47 649 33 553 q 104 833 60 746 q 171 926 131 889 q 256 978 211 963 q 344 987 300 993 q 425 950 389 981 q 471 893 453 926 q 499 822 489 860 q 513 742 510 783 q 513 664 515 701 l 386 665 q 387 708 388 683 q 383 756 386 732 q 372 803 379 781 q 351 840 364 825 q 317 861 336 858 q 277 853 297 864 q 239 819 257 842 q 210 763 221 796 q 174 620 185 696 q 164 464 164 544 q 170 378 164 433 q 192 268 176 322 q 232 175 207 214 q 294 138 257 136 q 351 174 325 139 q 393 275 378 208 q 401 336 400 307 q 403 383 401 365 q 331 381 367 381 q 258 381 294 381 l 261 514 q 399 509 329 510 q 535 514 468 508 l 538 392 z "},"H":{"ha":619,"x_min":39,"x_max":586,"o":"m 560 993 q 557 860 558 939 q 555 698 556 782 q 553 534 554 614 q 551 399 551 454 l 586 399 l 586 278 l 551 276 l 551 -71 l 431 -72 q 428 103 429 15 q 428 276 428 190 l 189 275 l 179 -10 l 58 -7 l 65 272 l 39 271 l 39 404 l 67 404 l 83 915 l 215 911 l 193 401 l 425 400 q 426 535 425 456 q 427 699 426 615 q 428 863 428 783 q 429 996 429 942 l 560 993 l 560 993 z "},"™":{"ha":536,"x_min":49,"x_max":493,"o":"m 181 1010 q 182 849 183 932 q 178 688 181 765 l 128 689 q 131 849 131 767 q 126 1011 131 932 l 49 1011 l 50 1051 l 265 1046 l 264 1010 l 181 1010 m 493 1028 q 483 858 486 943 q 478 688 479 774 l 428 688 q 428 783 428 736 q 431 879 428 831 q 399 816 415 847 q 365 753 382 785 l 322 753 q 294 801 308 779 q 268 850 279 824 q 269 785 269 818 q 267 721 269 753 l 217 722 q 216 851 218 788 q 207 979 214 914 q 239 981 228 981 q 255 981 250 981 q 261 981 260 981 q 264 981 263 981 q 339 814 299 894 q 358 853 344 826 q 388 910 372 879 q 418 974 404 942 q 440 1031 432 1006 q 454 1031 447 1031 q 493 1028 461 1031 z "},":":{"ha":275,"x_min":69,"x_max":210,"o":"m 76 569 l 210 564 l 197 426 l 76 431 l 76 569 m 69 197 l 203 192 l 190 54 l 69 58 l 69 197 z "},"’":{"ha":206,"x_min":39,"x_max":167,"o":"m 42 1147 l 167 1147 q 155 1042 164 1094 q 126 939 146 989 l 64 944 l 78 1049 q 63 1056 79 1054 q 39 1058 47 1058 l 42 1147 z "},"‘":{"ha":206,"x_min":39,"x_max":167,"o":"m 164 939 l 39 939 q 51 1044 42 992 q 79 1147 60 1097 l 142 1142 l 128 1038 q 131 1033 126 1035 q 142 1030 136 1031 q 156 1028 149 1029 q 167 1028 163 1028 l 164 939 z "},"”":{"ha":363,"x_min":39,"x_max":322,"o":"m 42 1147 l 167 1147 q 155 1042 164 1094 q 126 939 146 989 l 64 944 l 78 1049 q 63 1056 79 1054 q 39 1058 47 1058 l 42 1147 m 197 1147 l 322 1147 q 310 1042 319 1094 q 282 939 301 989 l 219 944 l 233 1049 q 219 1056 235 1054 q 194 1058 203 1058 l 197 1147 z "},"“":{"ha":363,"x_min":39,"x_max":322,"o":"m 319 939 l 194 939 q 206 1044 197 992 q 235 1147 215 1097 l 297 1142 l 283 1038 q 287 1033 282 1035 q 298 1030 292 1031 q 311 1028 304 1029 q 322 1028 318 1028 l 319 939 m 164 939 l 39 939 q 51 1044 42 992 q 79 1147 60 1097 l 142 1142 l 128 1038 q 131 1033 126 1035 q 142 1030 136 1031 q 156 1028 149 1029 q 167 1028 163 1028 l 164 939 z "},"£":{"ha":622,"x_min":18,"x_max":585,"o":"m 499 347 l 211 349 q 209 247 210 301 q 208 131 208 193 l 585 140 l 582 8 l 18 4 l 18 100 q 29 106 18 103 q 53 113 40 110 q 76 120 65 117 q 88 126 88 124 q 88 183 88 153 q 88 244 88 214 q 88 302 88 275 q 89 350 89 329 l 50 350 l 50 472 l 89 472 q 90 585 89 542 q 91 654 90 629 q 92 689 92 679 q 92 701 92 699 q 93 703 93 704 q 94 704 93 701 q 126 861 94 792 q 198 962 153 919 q 297 1022 243 1004 q 408 1027 351 1040 q 515 961 465 1014 q 545 918 533 942 q 564 869 557 894 q 578 756 579 815 q 569 640 576 696 l 439 642 q 447 715 442 674 q 447 794 453 756 q 407 885 439 858 q 338 905 375 911 q 269 863 301 899 q 226 767 236 826 q 224 756 225 758 q 222 746 222 753 q 219 724 221 739 q 217 679 218 710 q 215 599 217 649 q 213 472 214 550 l 499 475 l 499 347 z "},"@":{"ha":872,"x_min":42,"x_max":828,"o":"m 813 746 q 826 609 828 679 q 804 472 825 539 q 785 423 797 449 q 754 372 772 397 q 715 326 736 347 q 668 293 693 306 q 588 284 626 272 q 517 324 550 296 q 431 321 474 321 q 351 340 389 321 q 304 381 322 356 q 276 435 286 406 q 266 498 267 465 q 269 561 265 531 q 294 628 275 597 q 340 681 313 658 q 403 716 368 703 q 475 731 438 729 q 508 733 488 732 q 549 733 528 733 q 588 731 569 732 q 617 728 607 729 q 606 651 610 682 q 600 598 603 619 q 596 562 597 576 q 594 535 594 547 q 606 460 594 483 q 634 440 618 438 q 666 467 650 442 q 689 539 682 493 q 697 615 694 575 q 692 694 699 654 q 651 803 682 763 q 576 863 619 844 q 481 876 532 881 q 381 849 429 871 q 290 788 332 826 q 222 697 247 749 q 186 594 199 649 q 173 483 174 539 q 185 372 172 426 q 224 268 197 317 q 310 171 261 203 q 417 132 360 139 q 538 137 475 125 q 668 169 601 149 l 708 53 q 572 17 643 32 q 431 6 501 3 q 295 35 361 10 q 175 118 229 60 q 90 257 121 175 q 50 428 58 339 q 58 608 42 518 q 114 769 74 697 q 208 888 150 835 q 336 973 267 942 q 481 1009 406 1004 q 628 982 557 1014 q 746 887 699 949 q 813 746 793 825 m 467 597 q 413 570 433 596 q 391 515 393 544 q 407 464 389 486 q 468 449 425 442 q 460 522 461 485 q 467 597 460 558 z "}}}
